<svg preserveAspectRatio="xMidYMid meet" data-bbox="30 39.5 140 121" viewBox="30 39.5 140 121" xmlns="http://www.w3.org/2000/svg" data-type="color" role="presentation" aria-hidden="true"><defs><style>#comp-l11jaqkr svg [data-color="1"] {fill: #000000;}</style></defs>
    <g>
        <path d="M170 160.5l-70-121-43.8 75.6h-.1L30 160.5h140zm-2.3-1.4h-50.1l5.8-57.6.3-.7h-.3l1.5-15.7 42.8 74zm-79.4-52l33.1-4.7-4.4 11-28.7-6.3zm26.4 7.3L96 134.6l-8.2-26.3 26.9 6.1zm-38-7l46.7-21-1.5 14.7-45.2 6.3zm9.4.2l8.5 27.2-20-25.6 11.5-1.6zm16 38.9l-43.2-30.9 14-6.3 29.2 37.2zm-5.9-9.8l20.3-22.1-12.8 31.6-7.5-9.5zm25.2-30.6l-5.1 50.6-11.9-8.5 17-42.1zM100 42.2l24.4 42.2-66 29.8 41.6-72zm-42.7 73.9l60.1 43H32.3l25-43z" fill="#000" data-color="1"></path>
    </g>
</svg>