<svg preserveAspectRatio="xMidYMid meet" data-bbox="30.1 29.9 140 140.1" viewBox="30.1 29.9 140 140.1" xmlns="http://www.w3.org/2000/svg" data-type="color" role="presentation" aria-hidden="true"><defs><style>#comp-l11inb5m svg [data-color="1"] {fill: #000000;}</style></defs>
    <g>
        <path d="M126.8 74.4c-6.9-7.2-16.6-11.7-27.4-11.7-20.8 0-37.9 17.1-37.9 37.9 0 9.9 3.8 18.8 10 25.6-.4.7-.2 1.6.4 2.1 7.4 7.4 17.2 11.5 27.6 11.5 21.5 0 39.1-17.5 39.1-39.1 0-9.5-3.4-18.5-9.6-25.7-.7-.7-1.5-.8-2.2-.6zM99.4 63.9c10.3 0 19.8 4.4 26.5 11.3-.4.6-.2 1.5.2 2.1 5.6 6.5 8.8 14.7 8.8 23.3 0 19.6-15.9 35.5-35.4 35.5-9.5 0-18.4-3.7-25.1-10.4-.5-.5-1.3-.6-1.9-.4-6-6.6-9.6-15.2-9.6-24.7-.2-20.2 16.3-36.7 36.5-36.7z" fill="#000000" data-color="1"></path>
        <path d="M99.4 47.5c-3.7 0-7.2.4-10.7 1.1-.4-.6-1.2-1-1.9-.9-24.5 5.8-41.6 27.5-41.6 52.9 0 30 24.3 54.3 54.3 54.3 10 0 19.7-2.7 28.2-7.9.7-.4 1-1.2.9-1.9 14.5-9.5 24.1-25.8 24.1-44.5-.3-29.3-24-53.1-53.3-53.1zm28.3 96.6c-.6-.5-1.3-.5-2.1-.1-7.9 4.9-17 7.3-26.3 7.3-28 0-50.6-22.8-50.6-50.7 0-23.6 15.9-43.9 39-49.3.7-.1 1.3-.9 1.3-1.6 3.4-.7 6.8-1.1 10.3-1.1 28.6 0 51.9 23.3 51.9 51.9 0 18.3-9.3 34.2-23.5 43.6z" fill="#000000" data-color="1"></path>
        <path d="M99.4 29.9c-3.8 0-7.5.2-11.2.9-.9.1-1.3.7-1.5 1.5-32.1 6-56.6 34.4-56.6 68.2 0 38.3 31.2 69.5 69.4 69.5 29 0 53.8-17.8 64.2-43.1h.1c.7 0 1.5-.5 1.7-1.2 3-8 4.6-16.6 4.6-25.2-.1-38.9-31.8-70.6-70.7-70.6zm0 139c-37.6 0-68.2-30.6-68.2-68.2 0-33.4 24-61.2 55.6-67 .4.6 1.1 1 1.8.9 3.5-.6 7.1-.9 10.7-.9 36.9 0 67 30.1 67 67 0 8.3-1.5 16.3-4.4 23.9-.2.7 0 1.5.5 1.9-10.2 24.8-34.5 42.4-63 42.4z" fill="#000000" data-color="1"></path>
    </g>
</svg>