<svg preserveAspectRatio="xMidYMid meet" data-bbox="37 31.5 126.001 137" viewBox="37 31.5 126.001 137" height="200" width="200" xmlns="http://www.w3.org/2000/svg" data-type="color" role="presentation" aria-hidden="true"><defs><style>#comp-kz7ne7j5 svg [data-color="1"] {fill: #FFFCF8;}</style></defs>
    <g>
        <path d="M100.002 100.009c18.822 0 34.135-15.366 34.135-34.252 0-18.891-15.313-34.257-34.135-34.257-18.827 0-34.14 15.366-34.14 34.257 0 18.887 15.313 34.252 34.14 34.252zM77.435 65.757c0-12.484 10.125-22.645 22.567-22.645s22.563 10.16 22.563 22.645-10.121 22.64-22.563 22.64-22.567-10.156-22.567-22.64z" fill="#DDE2DA" data-color="1"></path>
        <path d="M140.141 111.635H59.859C47.255 111.635 37 121.921 37 134.568v28.124c0 3.201 2.598 5.808 5.789 5.808h114.423c3.19 0 5.789-2.607 5.789-5.808v-28.124c-.001-12.647-10.256-22.933-22.86-22.933zm-91.568 45.253v-22.32c0-6.24 5.063-11.32 11.286-11.32h80.283c6.223 0 11.286 5.08 11.286 11.32v22.32H48.573z" fill="#DDE2DA" data-color="1"></path>
    </g>
</svg>