<svg preserveAspectRatio="xMidYMid meet" data-bbox="36.5 35.1 127 130.1" viewBox="36.5 35.1 127 130.1" xmlns="http://www.w3.org/2000/svg" data-type="color" role="presentation" aria-hidden="true"><defs><style>#comp-l11ikt20 svg [data-color="1"] {fill: #000000;}</style></defs>
    <g>
        <path d="M161.4 80.7c0-.2 0-.3-.2-.5V80l-17.5-29.6c0-.2-.2-.2-.2-.2-.2-.2-.3-.3-.5-.3l-35.5-14.6c-.2 0-.3 0-.5-.2l-21.3.3c-.2 0-.3 0-.5.2H85L59.4 54.5c-.2 0-.2.2-.3.3L36.7 92c-.2.2-.2.3-.2.7l6.9 39.5c0 .2.2.5.3.7l18.5 18.6.3.3 23.9 11.7c.2 0 .3.2.5.2l27.9 1.5c.2 0 .3 0 .7-.2l31.7-18.6c.2-.2.3-.2.3-.3l15.8-28.3c.2-.2.2-.5.2-.7l-2.1-36.4zm-20.3-29.3l-3.3 4.4-20.9-14.5 24.2 10.1zm-47.4 28l-20.9 24.5-9.7-9.5 19.5-34.6 11.1 19.6zm-9.2-20.9l14.8-.3 18.5 27.3-21.8-7-11.5-20zM73 107.2l21.6 21.1-32.2-8.7L73 107.2zm24.5 24.2l2 18.4-34-27.3 32 8.9zm.9-2.8l-23.9-23.2 21.1-24.7 23.4 7.4-20.6 40.5zm27-7.9l13.7 13.3-34.6 15.6 20.9-28.9zm-23.6 28.8l-2-18.3 21.9-9.5-19.9 27.8zm22.8-31.5l-23.3 10.2 20.3-39.5 24.6-5.1-21.6 34.4zm-3.5-31.7L102 58.1l35.1.3 9.6 22.4-25.6 5.5zm-13.3-48.4l26.6 18.3-33.2-.3 6.6-18zm-2.4-.7L99.2 54 88 37.6l17.4-.4zm-19.7.9l12 17.8-15.2.3-19.3-1.6 22.5-16.5zm-5.2 20.2L62.7 90.2c-.2-8.7-.7-27.6-1.3-33.6l19.1 1.7zm-21.2.7c.5 6.9.8 22.7 1.2 34.2l-20.8-1.6L59.3 59zm1.1 36.7l-1 21.4L40.3 94l20.1 1.7zm-20.8.9l19.1 23.2-13.4 10-5.7-33.2zm6.8 35.6l13-9.9 2.3 25.3-15.3-15.4zm16.2-35.1l8.7 8.4-9.6 11.2.9-19.6zM87 160.8l-22.8-11-2.5-27.2L99 152.4l-12 8.4zm3.4.5l10.4-7.2 10.4 8.4-20.8-1.2zm24.6 1l-11.9-9.5 37.4-16.9 4.5 8.9-30 17.5zm30.5-21.7l-3-5.9 3.1-2.8-.1 8.7zm.4-11.9l-4.6 4.1-14.3-14.2 20.5-32.7-1.6 42.8zm-6.5-71.2l3.3-4.4 15.7 26.7-9.1.8-9.9-23.1zm8.4 83.1l.3-10.7 10.7-9.2-11 19.9zm.4-13.8l1.2-39.3 11.2 28.8-12.4 10.5zm1.9-44l9.1-.8 1.6 28.5-10.7-27.7z" fill="#000000" data-color="1"></path>
    </g>
</svg>